<?xml version="1.0"?>
<svg xmlns:rdf="http://www.w3.org/1999/02/22-rdf-syntax-ns#" xmlns="http://www.w3.org/2000/svg" xmlns:cc="http://web.resource.org/cc/" xmlns:xlink="http://www.w3.org/1999/xlink" xmlns:dc="http://purl.org/dc/elements/1.1/" xmlns:svg="http://www.w3.org/2000/svg" viewBox="0 0 300 398">
  <path d="m0 0v398h300v-398h-300z" fill="#fdfdfd"/>
  <path d="m155 17l-2 6 7-2-5-4m6 0v3h1l1-3h-2z" fill="#999"/>
  <path d="m133 18l-2 6h5v-1l-3-5m10 0l2 4-3-2h-1c1.22 5.708 9.03 4.341 10-1l-8-1z" fill="#c3c3c3"/>
  <path d="m110 19l1 1-1-1m43.33 0.667l0.34 0.666-0.34-0.666z" fill="#333"/>
  <path d="m115 20l-9 4v1c6.14 0.624 20.72 1.891 23-5h-1l-1 2v-2h-1v2l-6 2 2-3v-1l-4 3h-1l-2-3z" fill="#c3c3c3"/>
  <path d="m151.33 20.667l0.34 0.666-0.34-0.666z" fill="#636363"/>
  <path d="m162 20v3l-5-1v1c2.39 0.638 8.64 0.448 5-3z" fill="#c3c3c3"/>
  <path d="m62 34l5-2c-2.239-2.324-3.603-0.3-5 2z" fill="#636363"/>
  <path d="m67 30l-2 1-1 3-3-1-2 4-2-2c-6.376 7.082-21.891 6.794-24 17l-12 2v1l2 1-3 3h56v-1c-4.503-2.094-23.944-0.827-23.944-7.011-0.001-7.888 17.795-9.377 14.944-20.989z" fill="#010101"/>
  <path d="m58 33l1 4-1-4m8 1v3h1l-1-3z" fill="#636363"/>
  <path d="m219 40l5-4-5 4z" fill="#999"/>
  <path d="m230 36c-0.31 3.805 0.25 5.782 4 7l-1-7h-3z" fill="#c3c3c3"/>
  <path d="m233 36l-2 2 5 5v-3l3 1-6-5z" fill="#333"/>
  <path d="m51 38v1h3l-3-1z" fill="#999"/>
  <path d="m219 40v10h1l1-10h-2z" fill="#636363"/>
  <path d="m235 41c3.62 6.602 5.14 5.868 12 5v-1h-8v-1h6c-1.35-4.623-6.01-4.007-10-3z" fill="#c3c3c3"/>
  <path d="m41 43v1l6-3-6 2z" fill="#999"/>
  <path d="m60 42v2l2-2h-2z" fill="#636363"/>
  <path d="m239 44v1h8v1h-5v1h14v-3c-3.95 0-8.99 1.971-8-2l-9 2z" fill="#999"/>
  <path d="m256 45l4 3-4-3z" fill="#636363"/>
  <path d="m220 46c-0.22 3.646-0.19 5.931 3 8l-2-5 6-1-7-2z" fill="#999"/>
  <path d="m234 47v1h5l-5-1z" fill="#333"/>
  <path d="m230 47v6h1l3-5-4-1z" fill="#999"/>
  <path d="m30 51v1h3l-3-1z" fill="#636363"/>
  <path d="m24 52v1h3l-3-1z" fill="#999"/>
  <path d="m22.667 53.333l0.666 0.334-0.666-0.334m-15.667 0.667v2h13l-13-2z" fill="#636363"/>
  <path d="m118 54l-34.996 11.789-10.188 7.608-24.816 3.603v1h19l-3 2-5 14c8.483-1.247 21.422-1.782 23-12l40 1v-1c-4.06-1.288-7.72-1.972-12-1.999-2.33-0.015-4.69 0.063-7-0.327-3.68-0.621-12.238-4.298-6.678-8.816 5.758-4.681 25.058-4.131 21.678-16.858z" fill="#010101"/>
  <path d="m222 54c5.16 8.352 10.36 13.74 10 24h1c2.46-11.758-2.1-13.557-5-24h-6z" fill="#c3c3c3"/>
  <path d="m56 55v1h8l-8-1z" fill="#999"/>
  <path d="m233.33 56.667l0.34 0.666-0.34-0.666z" fill="#636363"/>
  <path d="m47 57v1h8l-8-1z" fill="#999"/>
  <path d="m55 57v1h9l-9-1z" fill="#636363"/>
  <path d="m25 58v1h6l-6-1m18.667 0.333l0.666 0.334-0.666-0.334z" fill="#999"/>
  <path d="m18 61l4-1-4 1z" fill="#636363"/>
  <path d="m235 59l2 5h1l-3-5m-137 1v1h4l-4-1m6.67 0.333l0.66 0.334-0.66-0.334z" fill="#999"/>
  <path d="m93 64l3-1-3 1z" fill="#636363"/>
  <path d="m239 65l2 6h1l-3-6z" fill="#999"/>
  <path d="m98.667 69.333l0.666 0.334-0.666-0.334z" fill="#636363"/>
  <path d="m95.667 70.333l0.666 0.334-0.666-0.334m-1.667 0.667v4h1l-1-4z" fill="#999"/>
  <path d="m238 72v5l-3-2-1 5c-4.59-0.466-4.4 1.945-2 5l-3-1-3 6h5l-2 3h2l-1 12-4-3-3 3 1-3-5 4-2-6-1 9-4-1 2 3-5-1-1 3 4 1v4h-4c-1.06 2.67-1.84 15.32-8 11l-4 6 2 6v1l-2 1 4 1-1-10 5 1v-2l2 1 4-2 4-5 1 5 7-3-1-4 4-2-4-5-1 4h-1l1-7 4 4h1l4-2 1 1-1 4-3-1 4 8-1-4c3.07 4.11 0.91 9.29 0 14h-1l1-8c-5.32 1.58-5.51 4.99-5 10l4-1v4h1c0.58-3.98 8.13-29.63 1-27l-1-4 1-7 2-1 3 1-1 3 3 3h1l3-18 2-5-4-2 3-2v-5h-7v-1h6v-1l-2-1 2-3-3-2z" fill="#c3c3c3"/>
  <path d="m242.33 72.667l0.34 0.666-0.34-0.666z" fill="#999"/>
  <path d="m145 73l-3 4c2.29-0.942 2.66-1.563 3 1h1l-1-5m-51 2l2 3-2-3z" fill="#636363"/>
  <path d="m144 75l-3 8h-1l1-7-2 5h-1v-2h-1v7h-1l-1-5h-1l-13.35 20-6.71 9.72-18.94 3.28v1l24 1.96 38 0.04v-1l-24-6c4.96-9.41 15.44-23.602 11-35z" fill="#010101"/>
  <path d="m243 75l1 7h1l-2-7z" fill="#999"/>
  <path d="m51.667 76.333l0.666 0.334-0.666-0.334m-6.667 1.667v1h4l-4-1z" fill="#636363"/>
  <path d="m61 78v1l6 1-6-2m40 1v1h3l-3-1m10 0v1h5l-5-1m25 0v7h1l-1-7z" fill="#999"/>
  <path d="m234 80l-1 5v1l5 2 1-4-5-4z" fill="#fdfdfd"/>
  <path d="m63 82v3h1l-1-3z" fill="#636363"/>
  <path d="m82 82v1h9l-9-1m13 0v1h16l-16-1z" fill="#c3c3c3"/>
  <path d="m121 84h3l-1-2-2 2m92 0v1l13-1c-3.98-2.968-8.48-0.933-13 0m13-2l1 3h5l-6-3m-83 1v7h1l-1-7m101 0l-1 14h1v-14z" fill="#999"/>
  <path d="m132 84l-1 3 1-3z" fill="#636363"/>
  <path d="m199 87v1l10-1h-10m23-1l-2 4 1 4h1l2-8h-2z" fill="#c3c3c3"/>
  <path d="m189 100l6-5-2-2 6-4c-5.85-0.782-8.8 6.232-10 11m-128.67-9.333l0.334 0.666-0.334-0.666z" fill="#999"/>
  <path d="m106 90l1 5-4-3-1 4v2l3 2 1-4 3 1-3-7z" fill="#333"/>
  <path d="m110 90l2 8h-1l-2-4h-1l1 3-3-1c-0.76 4.15 0.69 11.62 5.38 13.34 4.01 1.46 6.72-3.88 5.85-7.17-0.99-3.694-5.11-8.82-7.23-12.17z" fill="#010101"/>
  <path d="m203 91l5 3c-0.86-3.081-1.91-3.522-5-3z" fill="#999"/>
  <path d="m65 92v1h5l-5-1z" fill="#636363"/>
  <path d="m127.33 92.667l0.34 0.666-0.34-0.666z" fill="#999"/>
  <path d="m205 92l2 3-2-3z" fill="#333"/>
  <path d="m62.667 93.333l0.666 0.334-0.666-0.334m78.663 2.334l0.34 0.666-0.34-0.666m-31.33 0.333l2 2v-2h-2z" fill="#999"/>
  <path d="m203 97v5h-1l-1-3h-3l2 6-3-1-4 4v1h6l-1 4h1l1-4h1v4l5 2-3-8 4 1h1l-1-5h2l-1-6h-1v3h-3l-1-3m14 0l4 5v-4l-4-1z" fill="#c3c3c3"/>
  <path d="m242 97l-4 12h1l3-12m-32 3l-1 10h1v-10m-92 2l-7 10c5.7-1.51 7.03-4.77 9-10h-2m-12 1l2 3-2-3z" fill="#999"/>
  <path d="m232 105l-2 1-1 7 1 4h4l-1-7 4 1-3-2 1-3-3-1z" fill="#fdfdfd"/>
  <path d="m185 106v18h1c1.17-6.31 2.58-12.32-1-18z" fill="#999"/>
  <path d="m223 106l1 4h1v-3h1v2c0.95-2.51-0.65-2.71-3-3z" fill="#fdfdfd"/>
  <path d="m133.33 108.67l0.34 0.66-0.34-0.66z" fill="#636363"/>
  <path d="m225 111l2 4h1l1-5-4 1z" fill="#fdfdfd"/>
  <path d="m233 110l1 9h1l2-8-4-1z" fill="#999"/>
  <path d="m108.67 112.33l0.66 0.34-0.66-0.34z" fill="#636363"/>
  <path d="m196 113l3 5h1l-4-5z" fill="#c3c3c3"/>
  <path d="m94 114v2h2l-2-2m4.667 0.33l0.666 0.34-0.666-0.34m5.333-0.33v1h8l-8-1z" fill="#999"/>
  <path d="m145 114v1h7l-7-1z" fill="#636363"/>
  <path d="m194 115l-1 8 2-1v1l-1 6h1l3-11-4-3z" fill="#c3c3c3"/>
  <path d="m217 115l2 7h1l1-4 4 5-4 2 3 4 2-8 3 1 1-4-1-1-4 2h-1l-4-4h-3z" fill="#fdfdfd"/>
  <path d="m131 116v1h4l-4-1m5 0v1h11l-11-1z" fill="#999"/>
  <path d="m156 117v1h4l-4-1m-38 0v1h10l-10-1z" fill="#636363"/>
  <path d="m188 120l-2 1v6h1v-3h1v6h1l1-2 1 5h2l-5-13z" fill="#c3c3c3"/>
  <path d="m206 122l-1 6h1l2-6h-2z" fill="#999"/>
  <path d="m185 124l2 13h1l1-3 4 1c-0.6-1.87-2.55-8.34-4-5h-1v-6h-1v3h-1l-1-3z" fill="#636363"/>
  <path d="m225 124v8l4-1-4-7z" fill="#999"/>
  <path d="m229 125l-1 14h1c1.08-4.2 3.7-10.76 0-14z" fill="#fdfdfd"/>
  <path d="m213 127l-6 5v4h1l7-4-2-5z" fill="#999"/>
  <path d="m195 128c-1.16 3.92-1.71 7.6 2 10l-2-10m27 0l-3 2v1l4 4h1l-2-7z" fill="#636363"/>
  <path d="m185 130l3 5-1-5h-2z" fill="#999"/>
  <path d="m206 132l-2 1 3 3-1-4z" fill="#636363"/>
  <path d="m190 134v4l8 4v-1l-1-3-7-4z" fill="#999"/>
  <path d="m199 134l-1 6h1v-4l6 5-1-6-1-1h-4m8 2l1 1-1-1z" fill="#333"/>
  <path d="m191 137v5h-1v-2h-1l4 6-2-9z" fill="#c3c3c3"/>
  <path d="m188.33 138.67l0.34 0.66-0.34-0.66z" fill="#999"/>
  <path d="m202 139l12 21h1c0.87-8.25-6.23-17.05-13-21z" fill="#636363"/>
  <path d="m225 140v6h1l-1-6z" fill="#010101"/>
  <path d="m226 140l-1 16c3.85-2.93 4.73-12.74 1-16z" fill="#999"/>
  <path d="m226 144l-1 10h1v-10z" fill="#333"/>
  <path d="m227 153l-2 19h1l1-19m-77 6l6-2c-2.76-1.59-5.29-1.33-6 2z" fill="#636363"/>
  <path d="m153 157v1h9v-2l-9 1z" fill="#999"/>
  <path d="m147 160l-3 2-1 6c-12.57-2-25.71 4.68-38 7v1l10 1h1l15-6 4 4 3-2-5 11 8-9-1-3c4.16-2.22 9.82-7.1 7-12z" fill="#c3c3c3"/>
  <path d="m148 162l5-1-5 1z" fill="#999"/>
  <path d="m227 162l-1 12h1v-12z" fill="#333"/>
  <path d="m53 169c1.795 4.57 4.467 7.16 9 9l-9-9z" fill="#999"/>
  <path d="m110 176l2 8h1l1-2h1c4.21 4.88 6.92 1.32 11-2l3 6 3-4 1-4-2-7-21 5z" fill="#636363"/>
  <path d="m140 172l1 3-8 9 5-11-3 2-4-1 2 4-1 4-3 4-3-6-11 4 2 2v9l3-3h1l2 7h1l2-3-1 5h1l9-15 1 3h1l3-4-2 5 2 2-4 1v1l10-2-4 1 2-4-4-1 7-1v-1l-4 1 3-5 3 2v-5h1v4h1l15-2-2 3 5 1-1-3h10v-1l-8-1c-0.99-4.96-2.48 0.56-5 0 0.34 0.08-1.42-2.8-2-3-4.43-1.48-9.64 0.18-10 2h-1v-2h-1l-1 2v-3l-10-4m-91 1l6 6-2-2-4-4m178 0l-1 4h3l-2-4z" fill="#999"/>
  <path d="m148 175v1l2 3 1-2h1v2h1v-2h5l-10-2m-93 1v4h12v-1l-4-3h-8z" fill="#c3c3c3"/>
  <path d="m138.33 176.67l0.34 0.66-0.34-0.66z" fill="#333"/>
  <path d="m64 177l3 2v1l-11-1v1l4 3-10 1v1h12v1h-4v1h13l2-7-9-3z" fill="#999"/>
  <path d="m70 181l1 6-11 5 1 4c8-0.81 18.404-1.24 25-6l-2 4 6-1c4.903 3.45 14.26 4.46 18-1h8l1-6-2-4-2 2h-1l-3-3v2l-3-6-36 4z" fill="#c3c3c3"/>
  <path d="m106 177l3 6 1-6h-4z" fill="#999"/>
  <path d="m149 179v5l-3-2-3 5 4-1v1l-7 1 4 1-2 4 7-1 6-3h1l14 5c2.73-1.37 5.81-2.23 5 1l30 5-4-7-3 1c0.5-2.91 1.12-4.32-2-5l5-5-26-5v1l3 1v1c-3.78-0.3-9.09-2.16-9 3l-5-1 2-3-15 2h-1l-1-4z" fill="#c3c3c3"/>
  <path d="m76 182v1l3 2h1l13 1v-1l-4-3h1l1 2 1-3-16 1z" fill="#999"/>
  <path d="m89 182c0.72 3.34 2.668 3.04 5 1l-5-1z" fill="#fdfdfd"/>
  <path d="m46 183v1h4l-4-1z" fill="#636363"/>
  <path d="m185 183l-1 4-3-2v3l6-1 4 3-4-7h-2z" fill="#999"/>
  <path d="m83.667 184.33l0.666 0.34-0.666-0.34z" fill="#333"/>
  <path d="m94 185v1l6 2-2-4-4 1z" fill="#999"/>
  <path d="m138 185l-1 4h-1l-1-3-4 7 3-2 1 3c1.4-0.69 7.3-4.15 3-4l2-5h-2z" fill="#c3c3c3"/>
  <path d="m201 185l-5 4 2 5 9 3-7-9 18 3v-1c-4.53-0.76-16-0.98-15-5h-2z" fill="#999"/>
  <path d="m202 186l13 1-13-1z" fill="#c3c3c3"/>
  <path d="m87 187l5 3 1-1-6-2z" fill="#fdfdfd"/>
  <path d="m199.67 186.33l0.66 0.34-0.66-0.34z" fill="#333"/>
  <path d="m46 190v1l9-1-2 6 4-2v2l4-1-1-3 4-4-8 3v-4l-10 3z" fill="#999"/>
  <path d="m56 187v4l8-3-8-1z" fill="#333"/>
  <path d="m200 188v3l5 1v-1l-3-1 2-1-4-1z" fill="#c3c3c3"/>
  <path d="m155 189l-6 3-3-2v4l11-2-2-3z" fill="#636363"/>
  <path d="m162 190l1 3 6-2-7-1m-77 0l-8 3v1c3.297-0.04 8.1 0.2 8-4z" fill="#999"/>
  <path d="m98 190l-1 4 4-3-3-1z" fill="#fdfdfd"/>
  <path d="m135.67 191.33l0.66 0.34-0.66-0.34m-84.67 2.67l3-2-3 2z" fill="#636363"/>
  <path d="m120 192l-2 3-5-1 1 3-4 3 8 1 2-5h3l-3-4z" fill="#c3c3c3"/>
  <path d="m169 192c0.46 3.71 3.96 2.96 7 2h-6l-1-2z" fill="#636363"/>
  <path d="m205 192v1l9 3-9-4z" fill="#c3c3c3"/>
  <path d="m62.667 195.33l0.666 0.34-0.666-0.34m151.33-0.33v1h3l-3-1m-94 1v5l3-5h-3z" fill="#636363"/>
  <path d="m207 196l7 4v-1l-7-3z" fill="#c3c3c3"/>
  <path d="m111 199l5 6 5 2 3-5-3-3-3 2-7-2z" fill="#999"/>
  <path d="m112 217c4.9-2.55 7.06-7.71 8-13-5.56 1.74-7.2 7.66-8 13z" fill="#fdfdfd"/>
  <path d="m115.33 205.67l0.34 0.66-0.34-0.66z" fill="#636363"/>
  <path d="m114.33 207.67l0.34 0.66-0.34-0.66z" fill="#999"/>
  <path d="m119.33 207.67l0.34 0.66-0.34-0.66m-6 2l0.34 0.66-0.34-0.66m5 0l0.34 0.66-0.34-0.66m-6.33 1.33v3h1l-1-3m5.33 0.67l0.34 0.66-0.34-0.66m-1 2l0.34 0.66-0.34-0.66z" fill="#636363"/>
  <path d="m111 214l-1 6 2 1 3-3-4-4z" fill="#999"/>
  <path d="m115 215l-2 3 2-3z" fill="#333"/>
  <path d="m160 228l15-2c-4.19-2.85-11.85-2.14-15 2z" fill="#999"/>
  <path d="m148 229v1c7.75 0 15.39-1.6 22 3v-2l7 5-4-5 3-5-28 3z" fill="#636363"/>
  <path d="m175 227l-2 4c2.65-0.57 3.36-1.59 2-4z" fill="#333"/>
  <path d="m176 228l1 8-3-1-1 7h1l1-3 4 16v10h-2l1 3 2-2 4 7-6-4 2 7 1-3 3 3-5 1 3 5 5-2-1 3c2.9 1.02 4.31 1.23 5-2h-3l6-4-11-12-4-24h-1v2h-1l-1-15z" fill="#999"/>
  <path d="m147 230v1h8l-8-1m23 1l4 7-4-7z" fill="#c3c3c3"/>
  <path d="m64 236v1l6 2c-0.414-3.3-2.922-2.95-6-3z" fill="#636363"/>
  <path d="m58 239v1l11-1v-2l-11 2z" fill="#010101"/>
  <path d="m177 237v6h1l-1-6m-109 2v1h3v1c-6.992 4.18-4.84 24.25-5 32 3.13-2.26 3.026-4.42 2-8v-9c4.319-4.18-2.863-12.91 6-13l-2-5-4 1z" fill="#c3c3c3"/>
  <path d="m49 243v1l19 1-7-2 5-3c-5.957-1.45-11.869-0.22-17 3z" fill="#999"/>
  <path d="m61 243l7 1 3-3c-3.89-2.2-6.961-1.02-10 2z" fill="#fdfdfd"/>
  <path d="m174 239c-0.64 6.02 0.43 11.98 0.43 18 0 13.69-4.15 35.96 7.57 46l1-4-3-1v-6h-1v3h-1l-2-39h1l1 2 1-3-5-16z" fill="#c3c3c3"/>
  <path d="m73 243v9h1l-1-9z" fill="#636363"/>
  <path d="m175 243l2 12-2-12z" fill="#fdfdfd"/>
  <path d="m180 248l2 7-2-7z" fill="#c3c3c3"/>
  <path d="m73 252l2 12h1l-3-12z" fill="#999"/>
  <path d="m76 264v3h1l-1-3m103 2l5 7-5-7z" fill="#636363"/>
  <path d="m77 267c0.812 3.93 2.214 5.64 6 7l-6-7m158 7l6-2-6 2z" fill="#c3c3c3"/>
  <path d="m241 271v1h7l-7-1z" fill="#636363"/>
  <path d="m67 272l1 8h1l2-6-1-2h-3z" fill="#999"/>
  <path d="m181 273l-1 4 4-1-3-3m52.67 0.33l0.66 0.34-0.66-0.34z" fill="#636363"/>
  <path d="m83 274v1l4 1v-1l-4-1z" fill="#999"/>
  <path d="m260.67 274.33l0.66 0.34-0.66-0.34z" fill="#333"/>
  <path d="m230 275l-4 3-2 6 2 8h4l-3-4 1-10 2-3z" fill="#999"/>
  <path d="m67 277l3 8-1 3 4-1-1 4 7-2v-1l-5-7-2 2-1-5-2 2h-1l-1-3m121 4h3v8h1v-3l7 2 6 12h1l6-1 1 9h2c1.91-9.19-9.04-20.76-15.13-26.94-3.87-3.94-8.66-5.14-11.87-0.06m46-2h4v2l-1 1-4-1-2 4-3-2-1 5c3.25 0 2.93 3.2 3 6h1c0.43-5.74 3.05-8.94 9-8l1-3 3 1 2 6-2-1 4 2-1-3 2-2h1l3 4-4 11h1l1-3 2 2 8-6-3 10h1l6-9 2 12c1.59-2.34 2.2-4.01 0-6v-1l5-8-4-1 1 3-10-4 1 3-6 2 5-12 1 2h1l-2-5-1 3h-1l1-4-6 2 1-2-5 1 2 4-1 1-6-2-1-3v-1l2-2-4 3c-2.14-2.02-3.78-3.44-6-1m-6-1l1 4 3-3-4-1m-8 9l7-8-7 8m-40-7c-0.28 3-0.1 4.63 3 5l-2 2 1 5h1l3-4 1-8-5 2v-2h-2z" fill="#c3c3c3"/>
  <path d="m246.33 281.67l0.34 0.66-0.34-0.66z" fill="#999"/>
  <path d="m266 281l5 4-5-4z" fill="#c3c3c3"/>
  <path d="m225.33 282.67l0.34 0.66-0.34-0.66z" fill="#333"/>
  <path d="m272 282l2 12h1l-3-12z" fill="#c3c3c3"/>
  <path d="m71 287c-1.026 5.49 2.206 10.75 8 11l1 5 3-1-1-4h4v-1l-2-2c6.675 0.78 10.444 6.21 5 11l3 1-1 9h1l7-9 1-5-5 1-1.75-7.67-6.25-4.33h-4l-1 6-5-2 2-6-7 2 1-4h-2z" fill="#999"/>
  <path d="m81 288l-4 5 5 4-1-9z" fill="#c3c3c3"/>
  <path d="m248.67 290.33l0.66 0.34-0.66-0.34z" fill="#636363"/>
  <path d="m116 292l3 7-3-1 7 10-3-8 2 2h1l-1-8-6-2m-23 2l2 9 3-1-1-3 3-1h4l3 2-1 3-4-1-4 3 1 3 12-4 2 3 1-1-5-3 1-3h-3l1-3-5-3-2 2-8-2m-9 1l2 2v1h-4v1l3 1c0.606 3.48 2.443 5.15 6 5l-5-5v-1l3-3-5-1z" fill="#c3c3c3"/>
  <path d="m260 294l-2 4h1l1-4z" fill="#636363"/>
  <path d="m120 295l3 3-3-3z" fill="#333"/>
  <path d="m256 295c-1.56 2.2-2.44 4.79-5 3-3.21 9.87-5.96 17.43-4 28h1l-1-5 3 3 1-2h1l1 6h1v-5h1v3l5 2-1-4c4.9-3.58-0.98-22.34-1-29h-2z" fill="#fdfdfd"/>
  <path d="m123 296l3 7-3-7z" fill="#999"/>
  <path d="m88 297l-2 2v1l6 5c1.427-4.46 0.122-6.08-4-8z" fill="#fdfdfd"/>
  <path d="m77.667 298.33l0.666 0.34-0.666-0.34z" fill="#333"/>
  <path d="m97 299l3 5h2v-2l4 1 1-3-3-2h-4l-3 1z" fill="#fdfdfd"/>
  <path d="m123 298v5h1l-1-5z" fill="#010101"/>
  <path d="m207 298l5 8v-7l-5-1m54.33 1.67l0.34 0.66-0.34-0.66m-178.33 0.33l-1 4 1 1 3-1 1 8h1l-3-12h-2z" fill="#636363"/>
  <path d="m120 300l3 8h1l-4-8z" fill="#fdfdfd"/>
  <path d="m245 322h1l5-21c-7.9 2.59-6 14.36-6 21z" fill="#636363"/>
  <path d="m260 301l-2 10c2.84-2.39 3.32-6.62 2-10m11.33 0.67l0.34 0.66-0.34-0.66m-156.33 0.33l-2 5-8-3v4l4 2 6 1c1.62-2.56 3.32-1.82 4 1l4 5h1v-7l2-6h-1l-1 4-5-5-4-1z" fill="#999"/>
  <path d="m124 303v3h1l-1-3z" fill="#333"/>
  <path d="m274 304v1h4l-3 4h5v-4l5 2c-2.55-4.63-6.31-3.87-11-3z" fill="#c3c3c3"/>
  <path d="m109 304l2 2v-2h-2z" fill="#333"/>
  <path d="m104 305c-2.89 1.74-7.124 2.14-9.505 4.52-4.077 4.08-8.029 25.27-3.495 28.48l-1-8h1l1 5h1v-7l2 5 4-3h1v4h1v-2h1v6h1v-6h1l2 9h1v-12h1l2 7c3.2-2.42 3.14-22.47 2-27l-3 1-5-5z" fill="#fdfdfd"/>
  <path d="m185 305l3 10h1l-1-8h1l3 5-1 5c5.06-5.57-0.46-10.23-6-12z" fill="#c3c3c3"/>
  <path d="m280 305l-1 7 4-7h-3z" fill="#fdfdfd"/>
  <path d="m212 306v3h1l-1-3z" fill="#333"/>
  <path d="m260 306c-0.54 7.1 0.18 13.75 4 20l-4-20z" fill="#636363"/>
  <path d="m213 308v1l6 3-3-5-3 1z" fill="#fdfdfd"/>
  <path d="m216 307l2 8h-1c-0.16-3.75-1.43-4.96-5-6 4.46 8.9-0.17 12.8-1 22l4-1 2-12 5 1v-1l-3-1 1-3h1l2 6h1l-3-6-5-7m52 0v1l10 2 3 7 1-3 1 2h1l-1-9 1 5h-5c-0.9-4.24-7.14-4.46-11-5z" fill="#999"/>
  <path d="m112 308l1 1-1-1z" fill="#010101"/>
  <path d="m115 308l-2 2-2 19h1v-3h1l1 2 1-3-3-1 5-16h-2z" fill="#333"/>
  <path d="m117.33 308.67l0.34 0.66-0.34-0.66z" fill="#fdfdfd"/>
  <path d="m118 309l-2 4 4-3-2-1z" fill="#636363"/>
  <path d="m282 309l2 3-2-3m-89 2l1 7h1l-2-7z" fill="#333"/>
  <path d="m207 319l-3-2 3 9 7-3-2-12c-3.85 1.54-4.23 4.13-5 8z" fill="#c3c3c3"/>
  <path d="m212 311l1 9c3.33-2.82 2.56-6.86-1-9z" fill="#636363"/>
  <path d="m218 312l-1 3 1-3z" fill="#333"/>
  <path d="m195 314v4h-1l-1-3c-0.13 3.51 0.63 4.91 4 6l-2-7z" fill="#636363"/>
  <path d="m220 314l-1 3 3 1-1 8c4.54-3.22 2.13-8.49-1-12z" fill="#c3c3c3"/>
  <path d="m89 315v9h1l1-9h-2z" fill="#010101"/>
  <path d="m88 316v10h1l-1-10m180 0l-5 3 1 7-1-3-4 1 1 4-4-3-1 6 2 1h5l3-3 2-4v7h1l4-7-2-4-3 2 3-4v-3h-2m13 0v9h1l-1-9m-191 1v10h1l-1-10z" fill="#c3c3c3"/>
  <path d="m192 318l-1 6h5l-4-6z" fill="#999"/>
  <path d="m217 318l-4 10c3.19 1.09 4.29 0.95 6-2l-2-8z" fill="#636363"/>
  <path d="m218 318l-1 8h1v-2h1l-2 6c5.5-1.75 5.15-8.75 1-12z" fill="#333"/>
  <path d="m242 319v10l-7-8 1 9 3-1 4 4v-5h1l1 4c2.66-3.4 2.57-6.07 1-10l-1 3h-1l-2-6m11 0v4l2-4h-2z" fill="#c3c3c3"/>
  <path d="m196 321l1 7h1l-2-7z" fill="#333"/>
  <path d="m202 321l3 5-3-5z" fill="#c3c3c3"/>
  <path d="m247 321l1 11h1l-2-11z" fill="#999"/>
  <path d="m192 322l4 12-4-12z" fill="#010101"/>
  <path d="m194 322l3 17h1c0-6.3 0.01-11.81-4-17m22 0v3h1l-1-3z" fill="#fdfdfd"/>
  <path d="m249 322l1 10c4.05-2.71 2.69-5.7 2-10h-3z" fill="#c3c3c3"/>
  <path d="m197.33 323.67l0.34 0.66-0.34-0.66z" fill="#999"/>
  <path d="m211 323l-4 3 4 3 2-6h-2z" fill="#636363"/>
  <path d="m254 323v10h1l-1-10z" fill="#999"/>
  <path d="m89 324l-1 7h1v-7z" fill="#333"/>
  <path d="m218.33 324.67l0.34 0.66-0.34-0.66z" fill="#c3c3c3"/>
  <path d="m233 325v4h1l-1-4z" fill="#999"/>
  <path d="m245.33 325.67l0.34 0.66-0.34-0.66z" fill="#636363"/>
  <path d="m266 325v5-5z" fill="#999"/>
  <path d="m112 326v6h1l2-5-3-1m86 0v9h1l-1-9z" fill="#636363"/>
  <path d="m271 326l-3 8 3 1 2-7 2 5 2-6-1 2h-1l-1-3h-3z" fill="#c3c3c3"/>
  <path d="m285 326v6h1l-1-6z" fill="#999"/>
  <path d="m230 327l3 5-3-5m-137 1l1 15h1l2-2v-9l-2 1-2-5m110 3l9 1-1-3-2 2c-2.45-2.3-3.55-2.3-6 0m-96-2l1 12h-2l-2-9h-1v6h-1v-6h-1v2h-1v-4h-1l-1 9h1l1-4h1l-1 5 4-2-1 4 5 1 1-3 2 3 2-6h1v4l3-6-3 1-2-4-2 4-3-7m113 0c-4.2 2.13-5.56 4.74-3 9l5-4-2-5z" fill="#c3c3c3"/>
  <path d="m280 329v3h1l-1-3z" fill="#636363"/>
  <path d="m90 330v14h1l1-3 1 3 8-2-1 5h1l3-3v-6l-4 2 1-5h-1l-1 4h-1v-7h-1v9l-2 2h-1l-4-13z" fill="#999"/>
  <path d="m120 330l-1 11-3 1v1l8 1 4-6-3 1v-4h-1v4h-1l-3-9z" fill="#c3c3c3"/>
  <path d="m195.33 330.67l0.34 0.66-0.34-0.66m77.67 1.33l3-2-3 2z" fill="#636363"/>
  <path d="m87 331l-3 6h-1v-5h-1v7c-4.23 1.3-4.666 3.83-5 8h1l1-7h1v4c3.567-2.46 8.016-8.58 7-13z" fill="#999"/>
  <path d="m107 331v10h1l-1-10z" fill="#636363"/>
  <path d="m199 331l1 20h1l-2-20z" fill="#333"/>
  <path d="m73 332l-3 9c-3.573 0.69-4.134 2.46-4 6l8-8-1 4 1 4h1l2-12-1 2h-1l-2-5m12 0l-2 5h1l3-5h-2m111 0l1 22 5 3 2-7h1v3h1v-6l7 9v-1l-2-1 2-1-2-1 2-3h1l4 1-1 3 3-4h1v4h1l3-10-3 2v-4h-1l-5 3-3 3 2-4-5 1-2-8 1 6-7 1v1h4l-5 7h-1l-1-16h-1v4h-1l-1-7m8 0l-1 1v2l2 5h1v-8h-2m-117 2l-7 10v-4h-1l4 7 3-3 1-8h1l-1 8h3l-3-10z" fill="#c3c3c3"/>
  <path d="m194 334v5h1l1-5h-2z" fill="#333"/>
  <path d="m87 336l-1 9h1v-9z" fill="#999"/>
  <path d="m184 336l-10 1v1l8 4h-7v1h8v-4l2 2h1v-5h-2z" fill="#c3c3c3"/>
  <path d="m117 338l-3 5 5-2-2-3z" fill="#999"/>
  <path d="m195 338l-1 8h1v-8z" fill="#010101"/>
  <path d="m73 339l-1 5 1-5z" fill="#636363"/>
  <path d="m183 339v12h-1v-5h-1l2 11c1.58-5.35 2.68-12.93 0-18m5 0l-1 9h1v-9m-79 1l-1 5h1l1-2c1.64 2.42 2.58 0.11 3-2h-1l-1 2-2-3m102 0l-1 4 4-2-3-2z" fill="#999"/>
  <path d="m64 341v3h1l-1-3z" fill="#636363"/>
  <path d="m186 341v3h1l-1-3m13 0v4h1l-1-4z" fill="#999"/>
  <path d="m77.333 342.67l0.334 0.66-0.334-0.66z" fill="#fdfdfd"/>
  <path d="m195 343l1 4h-1l-1-3h-1l-1 7h-2l-1-3-3 6h1v-3l8 3c1.1-3.88 3.72-8.06 0-11z" fill="#999"/>
  <path d="m172 344l4 5 1 9h1l-1-14h-1v4l-4-4z" fill="#c3c3c3"/>
  <path d="m201 349l5-5-5 5z" fill="#999"/>
  <path d="m195.33 345.67l0.34 0.66-0.34-0.66z" fill="#fdfdfd"/>
  <path d="m231 345l-7 10 5-5-1 4c3.7-0.79 5.22-6.25 3-9z" fill="#c3c3c3"/>
  <path d="m175 349v3h1l-1-3z" fill="#636363"/>
  <path d="m208 349v8h1l-1-8m5 0l-2 3v3h4l-2-6m-17 2v6h1l-1-6z" fill="#999"/>
  <path d="m214.33 351.67l0.34 0.66-0.34-0.66z" fill="#333"/>
  <path d="m189 352l5 4-5-4m17 0v3h1l-1-3z" fill="#636363"/>
  <path d="m220 353l-5 5 5-1h1l-1-4z" fill="#c3c3c3"/>
  <path d="m258 378v1h3l-3-1z" fill="#999"/>
  <path d="m286 378l1 3-6-2-1 3 7 2h1l-2-6z" fill="#c3c3c3"/>
  <path d="m230 379v6l3-2c3.46 2.52 6.8 1.59 9-2l-6 3c-1.06-3.49-2.42-4.43-6-5m14 1l4 4-1-5-3 1m8.33-0.33l0.34 0.66-0.34-0.66z" fill="#999"/>
  <path d="m257 379l1 1-1-1z" fill="#636363"/>
  <path d="m258 380l-2 3 6 1 17-1c-1.1-3.71-6.48-5.3-7-1h-1l-1-3-12 1z" fill="#c3c3c3"/>
  <path d="m236 380v4h1l-1-4m7 2l-1 2h2l-1-2z" fill="#636363"/>
  <metadata>
    <rdf:RDF>
      <cc:Work>
        <dc:format>image/svg+xml</dc:format>
        <dc:type rdf:resource="http://purl.org/dc/dcmitype/StillImage"/>
        <cc:license rdf:resource="http://creativecommons.org/licenses/publicdomain/"/>
        <dc:publisher>
          <cc:Agent rdf:about="http://openclipart.org/">
            <dc:title>Openclipart</dc:title>
          </cc:Agent>
        </dc:publisher>
        <dc:title>Sandhill Cranes</dc:title>
        <dc:date>2013-09-11T19:11:14</dc:date>
        <dc:description>This public domain image comes from http://www.fws.gov/pictures/lineart/bobsavannah/sandhillcranes.html and as of 2013-09-11 19:02:49 is this file, http://www.fws.gov/pictures/lineart/bobsavannah/graphics/sandhillcranes.jpg. .fws.gov </dc:description>
        <dc:source>http://openclipart.org/detail/183326/sandhill-cranes-by-worldlabel-183326</dc:source>
        <dc:creator>
          <cc:Agent>
            <dc:title>worldlabel</dc:title>
          </cc:Agent>
        </dc:creator>
        <dc:subject>
          <rdf:Bag>
            <rdf:li>bird</rdf:li>
            <rdf:li>bobsavannah</rdf:li>
            <rdf:li>dig</rdf:li>
            <rdf:li>graphics</rdf:li>
            <rdf:li>lineart</rdf:li>
            <rdf:li>pd</rdf:li>
            <rdf:li>pictures</rdf:li>
            <rdf:li>publicdomain</rdf:li>
            <rdf:li>sandhill-crane</rdf:li>
            <rdf:li>sandhillcranes</rdf:li>
            <rdf:li>upload2openclipart</rdf:li>
            <rdf:li>vectorized</rdf:li>
            <rdf:li>www</rdf:li>
          </rdf:Bag>
        </dc:subject>
      </cc:Work>
      <cc:License rdf:about="http://creativecommons.org/licenses/publicdomain/">
        <cc:permits rdf:resource="http://creativecommons.org/ns#Reproduction"/>
        <cc:permits rdf:resource="http://creativecommons.org/ns#Distribution"/>
        <cc:permits rdf:resource="http://creativecommons.org/ns#DerivativeWorks"/>
      </cc:License>
    </rdf:RDF>
  </metadata>
</svg>
